{"accessors":[{"bufferView":2,"componentType":5126,"count":14387,"max":[0.27773401141166687,0.3988339900970459,0.35756298899650574],"min":[-0.2947790026664734,-0.3669869899749756,-0.2761319875717163],"type":"VEC3"},{"bufferView":2,"byteOffset":172644,"componentType":5126,"count":14387,"max":[0.9996451735496521,0.9999070763587952,0.9991856813430786],"min":[-0.9999703764915466,-0.9995537996292114,-0.999517560005188],"type":"VEC3"},{"bufferView":1,"componentType":5126,"count":14387,"max":[0.9999790191650391,0.999916136264801],"min":[0.00038178201066330075,0.004234015941619873],"type":"VEC2"},{"bufferView":0,"componentType":5125,"count":69276,"type":"SCALAR"}],"asset":{"extras":{"author":"sagefreeman (https://sketchfab.com/sagefreeman)","license":"CC-BY-4.0 (http://creativecommons.org/licenses/by/4.0/)","source":"https://sketchfab.com/3d-models/leaf-1ddbbe6f0ff84226a9d4d75a64b7fbeb","title":"Leaf"},"generator":"Sketchfab-12.68.0","version":"2.0"},"bufferViews":[{"buffer":0,"byteLength":277104,"name":"floatBufferViews","target":34963},{"buffer":0,"byteLength":115096,"byteOffset":277104,"byteStride":8,"name":"floatBufferViews","target":34962},{"buffer":0,"byteLength":345288,"byteOffset":392200,"byteStride":12,"name":"floatBufferViews","target":34962}],"buffers":[{"byteLength":737488,"uri":"data:application/octet-stream;base64,"}],"extensionsRequired":["KHR_materials_pbrSpecularGlossiness"],"extensionsUsed":["KHR_materials_pbrSpecularGlossiness"],"images":[{"uri":"data:application/octet-stream;base64,"}],"materials":[{"doubleSided":true,"extensions":{"KHR_materials_pbrSpecularGlossiness":{"diffuseFactor":[0.6766092698320049,0.6766092698320049,0.6766092698320049,1],"diffuseTexture":{"index":0},"glossinessFactor":0,"specularFactor":[0,0,0]}},"name":"material_1"}],"meshes":[{"name":"Object_0","primitives":[{"attributes":{"NORMAL":1,"POSITION":0,"TEXCOORD_0":2},"indices":3,"material":0,"mode":4}]}],"nodes":[{"children":[1],"matrix":[1,0,0,0,0,2.220446049250313e-16,-1,0,0,1,2.220446049250313e-16,0,0,0,0,1],"name":"Sketchfab_model"},{"children":[2],"name":"root"},{"children":[3],"matrix":[1,0,0,0,0,2.220446049250313e-16,1,0,0,-1,2.220446049250313e-16,0,0,0,0,1],"name":"GLTF_SceneRootNode"},{"children":[4],"matrix":[1,0,0,0,0,-1.685873969314855e-7,0.9999999999999858,0,0,-0.9999999999999858,-1.685873969314855e-7,0,0,0,0,1],"name":"export_2"},{"mesh":0,"name":"Object_4"}],"samplers":[{"magFilter":9729,"minFilter":9987,"wrapS":10497,"wrapT":10497}],"scene":0,"scenes":[{"name":"Sketchfab_Scene","nodes":[0]}],"textures":[{"sampler":0,"source":0}]}